HIERARCHY
ROOT Hips
{
	OFFSET 0.00000 0.00000 0.00000
	CHANNELS 6 Xposition Yposition Zposition Yrotation Zrotation Xrotation 
	JOINT Lumbar
	{
		OFFSET 0 0 0
		CHANNELS 3 Zrotation Xrotation Yrotation
		JOINT Neck
		{
			OFFSET 0.00 0.2701 0.00
			CHANNELS 3 Zrotation Xrotation Yrotation
			End Site
			{
				OFFSET 0.00 0.1379 0.00
			}
		}
		JOINT RightShoulder
		{
			OFFSET 0.0119 0.2289 0.1181
			CHANNELS 3 Zrotation Xrotation Yrotation
			JOINT RightElbow
			{
				OFFSET 0.00 -0.1475 0.00
				CHANNELS 2 Zrotation Yrotation
				JOINT RightWrist
				{
					OFFSET 0.00 -0.1605 0.00
					CHANNELS 2 Zrotation Xrotation
					End Site
					{
						OFFSET 0.0040 -0.1068 0.0006
					}
				}
			}
		}
		JOINT LeftShoulder
		{
			OFFSET 0.0119 0.2289 -0.1181
			CHANNELS 3 Zrotation Xrotation Yrotation
			JOINT LeftElbow
			{
				OFFSET 0.00 -0.1475 0.00
				CHANNELS 2 Zrotation Yrotation
				JOINT LeftWrist
				{
					OFFSET 0.00 -0.1605 0.00
					CHANNELS 2 Zrotation Xrotation
					End Site
					{
						OFFSET 0.0040 -0.1068 -0.0006
					}
				}
			}
		}
	}
	JOINT RightHip
	{
		OFFSET 0.0316 -0.0424 0.0458
		CHANNELS 3 Zrotation Xrotation Yrotation
		JOINT RightKnee
		{
			OFFSET 0.00 -0.2438 0.00
			CHANNELS 1 Zrotation
			JOINT RightAnkle
			{
				OFFSET 0.00 -0.2449 0.00
				CHANNELS 3 Zrotation Xrotation Yrotation
				End Site
				{
					OFFSET 0.1237 -0.0542 0.0051
				}
			}
		}
	}
	JOINT LeftHip
	{
		OFFSET 0.0316 -0.0424 -0.0458
		CHANNELS 3 Zrotation Xrotation Yrotation
		JOINT LeftKnee
		{
			OFFSET 0.00 -0.2438 0.00
			CHANNELS 1 Zrotation
			JOINT LeftAnkle
			{
				OFFSET 0.00 -0.2449 0.00
				CHANNELS 3 Zrotation Xrotation Yrotation
				End Site
				{
					OFFSET 0.1237 -0.0542 -0.0051
				}
			}
		}
	}
}
MOTION
Frames: 29
Frame Time: 0.02
-0 0.57926 -0 181.85173 0 -3.77439 2.8022 4.23283 -1.36507 -0.47227 -2.49105 -1.67371 -12.42172 -7.87084 -28.63647 5.32708 78.80494 -1.51316 3.99465 -11.33273 10.35378 45.06164 5.32681 -65.78269 -7.18691 -0.92856 -6.56968 6.00078 0.08488 -4.41908 3.24035 -4.60175 -7.03317 -3.11255 3.11278 -13.14154 -5.76801 6.23955 5.55469 7.35589
0.0002 0.57919 4e-05 181.89993 0 -3.77307 3.06267 4.1718 -1.44368 -1.14085 -2.22443 -1.75126 -9.80776 -8.63975 -24.85463 5.87887 79.0133 -1.77624 2.48928 -8.14389 10.81197 39.03013 5.86579 -67.59637 -7.17257 0.11554 -6.57531 5.99937 0.05693 -4.38699 3.24577 -4.63055 -7.03408 -3.10438 3.11654 -13.18245 -5.733 6.23833 5.55473 7.33198
0.00039 0.57912 8e-05 181.94749 0 -3.77183 3.32272 4.11107 -1.52182 -1.8072 -1.959 -1.82805 -7.20017 -9.40482 -21.08902 6.43063 79.22033 -2.03775 0.99409 -4.96331 11.26667 33.03078 6.40582 -69.40003 -7.15867 1.15173 -6.58063 5.99798 0.02971 -4.35547 3.25109 -4.65913 -7.03518 -3.09615 3.12027 -13.22307 -5.69845 6.23706 5.55493 7.3085
0.00059 0.57905 0.00012 181.99301 0 -3.77091 3.58301 4.05111 -1.59901 -2.47062 -1.69584 -1.90239 -4.59685 -10.16274 -17.358 6.98582 79.42479 -2.29581 -0.47238 -1.78955 11.71365 27.10437 6.95319 -71.182 -7.14518 2.16348 -6.58468 5.99663 0.00521 -4.32606 3.25609 -4.68707 -7.03705 -3.08756 3.12391 -13.26288 -5.66546 6.23561 5.55596 7.2863
0.00079 0.57897 0.00015 182.04939 0 -3.76833 3.84128 3.98726 -1.68144 -3.14893 -1.42082 -1.98952 -1.97602 -10.95939 -13.4516 7.5206 79.64372 -2.57247 -2.08776 1.41455 12.20369 20.79535 7.45912 -73.07953 -7.12802 3.3011 -6.59533 5.99508 -0.03358 -4.28562 3.26283 -4.71836 -7.03485 -3.08082 3.12803 -13.30691 -5.62425 6.23517 5.55285 7.2571
0.00097 0.57891 0.00019 182.08271 0 -3.76923 4.10408 3.93159 -1.75257 -3.79548 -1.17106 -2.04965 0.60861 -11.67276 -9.91471 8.09951 79.83126 -2.80929 -3.38874 4.55516 12.6007 15.29933 8.05391 -74.73029 -7.11963 4.1738 -6.5921 5.99394 -0.04217 -4.26845 3.26586 -4.74259 -7.04126 -3.07023 3.13111 -13.34203 -5.60043 6.23256 5.55834 7.24288
0.00112 0.57894 0.00026 182.05122 0 -3.78037 4.38271 3.89885 -1.79446 -4.36556 -0.98716 -2.03288 3.13149 -12.1723 -7.38296 8.80862 79.9397 -2.94107 -3.80757 7.56753 12.75426 11.99985 8.90534 -75.72775 -7.12856 4.29136 -6.54838 5.99402 0.036 -4.3182 3.25859 -4.74665 -7.07257 -3.04776 3.13148 -13.3518 -5.62599 6.22404 5.58981 7.26984
0.00125 0.579 0.00033 181.99662 0 -3.7949 4.66551 3.87427 -1.82465 -4.90184 -0.82921 -1.98923 5.61238 -12.58524 -5.22517 9.56149 80.01568 -3.03216 -3.91198 10.50909 12.81135 9.52714 9.84523 -76.47417 -7.14801 4.14562 -6.49102 5.99449 0.14412 -4.391 3.24759 -4.7437 -7.1124 -3.0216 3.13077 -13.35264 -5.66884 6.21333 5.62959 7.31191
0.00138 0.57904 0.0004 181.95326 0 -3.80746 4.94476 3.84571 -1.85896 -5.44739 -0.66172 -1.95943 8.09242 -13.02806 -2.90184 10.28988 80.10107 -3.13844 -4.16989 13.45803 12.90431 6.70276 10.73858 -77.31564 -7.16667 4.13617 -6.44126 5.99472 0.23648 -4.4516 3.23834 -4.74442 -7.14769 -2.9979 3.13042 -13.35815 -5.70294 6.20355 5.66414 7.34737
0.00153 0.57909 0.00047 181.90674 0 -3.82185 5.23143 3.81832 -1.89827 -6.01984 -0.48492 -1.92289 10.66132 -13.51128 -0.55649 11.03772 80.20691 -3.25747 -4.38312 16.51696 13.03187 3.77439 11.65909 -78.22844 -7.16689 4.05775 -6.38554 5.99523 0.33794 -4.51949 3.22887 -4.74317 -7.1859 -2.97088 3.13057 -13.36139 -5.74089 6.19399 5.7048 7.38214
0.00164 0.57913 0.00053 181.86137 0 -3.83324 5.50301 3.79042 -1.92444 -6.5266 -0.33346 -1.89379 13.02876 -13.88918 1.64936 11.75521 80.26504 -3.34174 -4.61449 19.32272 13.06323 1.26278 12.54341 -78.94413 -7.21 4.05882 -6.33905 5.99527 0.42749 -4.57766 3.21894 -4.74428 -7.21993 -2.94994 3.1295 -13.36682 -5.77484 6.18353 5.73475 7.42142
0.00163 0.57919 0.00054 181.82425 0 -3.83544 5.73746 3.75905 -1.91657 -6.87429 -0.24719 -1.89347 14.90506 -14.00312 3.60452 12.38023 80.17755 -3.32713 -4.97509 21.5089 12.86317 -0.33455 13.31099 -79.07855 -7.35059 4.35811 -6.32099 5.99369 0.47765 -4.60354 3.2089 -4.75433 -7.24136 -2.94619 3.12476 -13.38405 -5.79429 6.17056 5.73287 7.47386
0.00157 0.57924 0.00052 181.78916 0 -3.83454 5.95548 3.72692 -1.89597 -7.15427 -0.18509 -1.9012 16.5689 -14.01323 5.42416 12.97246 80.0474 -3.28103 -5.36408 23.42995 12.56766 -1.53427 14.0376 -79.03863 -7.53638 4.74391 -6.31276 5.99167 0.5147 -4.61881 3.1985 -4.76688 -7.25813 -2.94877 3.11894 -13.40316 -5.80898 6.1569 5.72001 7.52958
0.00154 0.5793 0.00052 181.75356 0 -3.83513 6.17751 3.69517 -1.88156 -7.45621 -0.11105 -1.90417 18.29532 -14.06687 7.27785 13.57886 79.9509 -3.25823 -5.73905 25.43329 12.30886 -2.89426 14.78057 -79.14693 -7.71489 5.0806 -6.30029 5.98998 0.55715 -4.63881 3.18807 -4.7778 -7.27632 -2.94877 3.11402 -13.41899 -5.82529 6.14388 5.71231 7.58077
0.0015 0.57936 0.00051 181.71556 0 -3.83548 6.41464 3.6635 -1.86503 -7.79473 -0.04246 -1.911 20.16771 -14.13203 9.23514 14.19139 79.79239 -3.19743 -6.1091 27.60059 12.07478 -4.31343 15.53862 -78.96766 -7.84209 5.44906 -6.28638 5.98772 0.60276 -4.66 3.17825 -4.79051 -7.29762 -2.94737 3.10737 -13.44453 -5.84438 6.12928 5.70411 7.64488
0.00145 0.57941 0.0005 181.68316 0 -3.83557 6.61589 3.63144 -1.85006 -8.0407 0.03275 -1.9119 21.68111 -14.15079 10.94881 14.78089 79.75413 -3.20709 -6.49859 29.35787 11.7679 -5.52341 16.25129 -79.33359 -8.08134 5.77582 -6.278 5.98658 0.63859 -4.67588 3.16724 -4.80022 -7.31142 -2.95045 3.10406 -13.4507 -5.85645 6.11797 5.69434 7.68319
0.00136 0.57944 0.00047 181.66726 0 -3.83553 6.72613 3.5978 -1.84262 -8.05397 0.12676 -1.89577 22.29738 -14.0579 12.02862 15.33008 80.05066 -3.43366 -6.94993 30.10202 11.28277 -6.27503 16.87328 -81.38342 -8.66497 5.96178 -6.28232 5.98829 0.64792 -4.67964 3.15199 -4.80083 -7.3037 -2.96417 3.11028 -13.40035 -5.84926 6.11483 5.68178 7.64492
0.00125 0.57947 0.00043 181.65676 0 -3.83535 6.80001 3.56386 -1.83729 -7.97545 0.22956 -1.87327 22.5515 -13.92436 12.86852 15.85365 80.47053 -3.72936 -7.41821 30.43216 10.72831 -6.82913 17.44503 -83.96399 -9.35096 6.10408 -6.29198 5.9912 0.64817 -4.67831 3.1358 -4.79841 -7.28883 -2.98223 3.1199 -13.33092 -5.83525 6.11523 5.66818 7.5813
0.00114 0.5795 0.00039 181.6429 0 -3.83535 6.88793 3.53045 -1.83094 -7.93496 0.33181 -1.85297 22.94467 -13.81529 13.81675 16.37933 80.84004 -3.98444 -7.87096 30.91767 10.20635 -7.46441 18.02436 -86.21361 -9.96004 6.27174 -6.29936 5.9938 0.6543 -4.67922 3.12069 -4.79751 -7.27852 -2.99839 3.12794 -13.27203 -5.82499 6.11471 5.65575 7.53224
0.00105 0.57954 0.00035 181.63293 0 -3.8348 6.98595 3.4954 -1.82418 -7.90756 0.41803 -1.8359 23.44041 -13.67579 14.76399 16.94619 81.18701 -4.2786 -8.35931 31.53548 9.67655 -8.12471 18.67052 -88.83535 -10.69976 6.42249 -6.30641 5.99543 0.65282 -4.68007 3.10267 -4.79604 -7.26281 -3.01439 3.13611 -13.20553 -5.81195 6.11123 5.63997 7.47068
0.00093 0.57956 0.00031 181.6161 0 -3.83534 7.05427 3.46368 -1.81921 -7.83209 0.54084 -1.81046 23.6365 -13.59319 15.65684 17.41907 81.60699 -4.50651 -8.77503 31.77887 9.14822 -8.68727 19.1613 -90.81104 -11.19014 6.59254 -6.31532 5.99931 0.66492 -4.67999 3.09067 -4.79508 -7.25637 -3.03179 3.14481 -13.15006 -5.80296 6.11481 5.63108 7.42885
0.00076 0.57954 0.00022 181.57908 0 -3.83939 7.05166 3.4415 -1.81668 -7.64603 0.75588 -1.76385 23.1181 -13.66301 16.46887 17.66048 82.23227 -4.5499 -9.00515 31.12424 8.63882 -9.0602 19.27535 -90.86743 -10.97518 6.86439 -6.32772 6.0097 0.71913 -4.67848 3.09401 -4.79553 -7.28009 -3.05092 3.15428 -13.13194 -5.80836 6.13674 5.64161 7.44963
0.00058 0.57951 0.00012 181.53494 0 -3.84445 7.02005 3.42266 -1.81644 -7.41537 1.00877 -1.70898 22.30713 -13.79487 17.23232 17.80443 82.92132 -4.52198 -9.15824 30.10183 8.13433 -9.33401 19.22698 -90.25709 -10.50433 7.14946 -6.34181 6.02221 0.78694 -4.67625 3.10372 -4.79669 -7.3129 -3.07147 3.16413 -13.12513 -5.81781 6.16573 5.65915 7.49075
0.0004 0.57948 2e-05 181.49397 0 -3.84874 7.00043 3.4021 -1.8164 -7.20543 1.24886 -1.65752 21.61521 -13.90836 18.01279 17.97871 83.55833 -4.51622 -9.33353 29.2266 7.62931 -9.63905 19.22759 -89.95668 -10.14459 7.40357 -6.35529 6.03336 0.84701 -4.67448 3.11156 -4.79803 -7.33971 -3.09206 3.17369 -13.11171 -5.82436 6.19166 5.67348 7.52134
0.00023 0.57946 -7e-05 181.45344 0 -3.85434 6.98474 3.38233 -1.81074 -6.98948 1.47079 -1.60704 20.96931 -13.97848 18.8096 18.21047 84.29421 -4.55427 -9.56216 28.42154 7.11408 -10.01042 19.33337 -89.64604 -9.80892 7.76253 -6.36826 6.04622 0.91333 -4.67208 3.11512 -4.79722 -7.37412 -3.10995 3.18388 -13.10398 -5.83507 6.21704 5.68791 7.5566
3e-05 0.57942 -0.00018 181.41026 0 -3.85744 6.95422 3.36178 -1.81788 -6.77776 1.73923 -1.55293 20.16274 -14.1547 19.55965 18.30038 84.84117 -4.48555 -9.66286 27.38779 6.62291 -10.2037 19.17951 -89.19069 -9.36278 7.90555 -6.38267 6.05601 0.96998 -4.67078 3.12903 -4.80099 -7.39502 -3.13369 3.19281 -13.08718 -5.83827 6.24523 5.70376 7.58711
-0.0002 0.57935 -0.00029 181.36121 0 -3.85349 6.89186 3.3377 -1.85467 -6.58072 2.12847 -1.48843 18.98733 -14.60503 20.23129 18.01767 84.82581 -4.12226 -9.41491 25.82067 6.19146 -10.08358 18.37325 -88.50236 -8.65942 7.46118 -6.40023 6.05671 0.9966 -4.6737 3.1706 -4.81816 -7.37576 -3.17386 3.19818 -13.04392 -5.81893 6.27903 5.72225 7.6013
-0.00045 0.57926 -0.0004 181.30975 0 -3.84697 6.8154 3.31284 -1.90516 -6.39208 2.56269 -1.42107 17.66211 -15.16089 20.85188 17.59736 84.62585 -3.65902 -9.04384 24.03724 5.78561 -9.75316 17.30837 -87.68765 -7.85671 6.79801 -6.4192 6.05428 1.01309 -4.67765 3.22223 -4.83975 -7.34275 -3.21974 3.20227 -12.99101 -5.7921 6.31543 5.74185 7.60985
-0.0007 0.57918 -0.00052 181.2596 0 -3.84155 6.74419 3.28869 -1.95281 -6.20442 2.97541 -1.35657 16.40452 -15.6711 21.47113 17.24236 84.52152 -3.2497 -8.73791 22.34894 5.37182 -9.42754 16.344 -86.92646 -7.1077 6.22595 -6.4378 6.05335 1.03424 -4.68048 3.26886 -4.85868 -7.31649 -3.26262 3.20692 -12.9417 -5.76928 6.35092 5.76069 7.6199
